<svg xmlns="http://www.w3.org/2000/svg" viewBox="0 0 69.11 69.11"><g id="Ebene_2" data-name="Ebene 2"><g id="Ebene_1-2" data-name="Ebene 1"><rect width="69.11" height="69.11" style="fill:#316631"/><g style="opacity:0.2"><path d="M34.55,60.56A22.73,22.73,0,1,1,57.29,37.83,22.76,22.76,0,0,1,34.55,60.56Z" style="fill:#fff"/></g><path d="M34.55,15.1A22.73,22.73,0,1,0,57.29,37.83,22.75,22.75,0,0,0,34.55,15.1Zm0,42.46c-3,0-5.73-3.29-7.43-8.23H42C40.29,54.27,37.57,57.56,34.55,57.56ZM26.27,46.33a38,38,0,0,1-.91-7H43.75a38,38,0,0,1-.91,7Zm-11.37-7h7.46a40.32,40.32,0,0,0,.82,7h-6.4A19.43,19.43,0,0,1,14.9,39.33ZM34.55,18.1c3,0,5.74,3.29,7.44,8.23H27.12C28.82,21.39,31.54,18.1,34.55,18.1Zm8.29,11.23a38,38,0,0,1,.91,7H25.36a38,38,0,0,1,.91-7Zm-20.48,7H14.9a19.43,19.43,0,0,1,1.88-7h6.4A40.32,40.32,0,0,0,22.36,36.33Zm24.39,3h7.46a19.43,19.43,0,0,1-1.88,7h-6.4A40.32,40.32,0,0,0,46.75,39.33Zm0-3a40.32,40.32,0,0,0-.82-7h6.4a19.43,19.43,0,0,1,1.88,7Zm3.81-10H45.15a23.25,23.25,0,0,0-3.26-6.8A19.76,19.76,0,0,1,50.56,26.33Zm-23.34-6.8A23.25,23.25,0,0,0,24,26.33H18.55A19.76,19.76,0,0,1,27.22,19.53Zm-8.67,29.8H24a23.25,23.25,0,0,0,3.26,6.8A19.91,19.91,0,0,1,18.55,49.33Zm23.34,6.8a23.25,23.25,0,0,0,3.26-6.8h5.41A19.91,19.91,0,0,1,41.89,56.13Z" style="fill:#fff;opacity:0.3"/><path d="M45.29,7.9a8.74,8.74,0,0,0-8.74,8.74c0,4.82,8.74,16.71,8.74,16.71S54,21.46,54,16.64A8.73,8.73,0,0,0,45.29,7.9Zm0,13.27a4.53,4.53,0,1,1,4.53-4.53A4.53,4.53,0,0,1,45.29,21.17Z" style="fill:#fff"/></g></g></svg>